<svg xmlns="http://www.w3.org/2000/svg" xmlns:xlink="http://www.w3.org/1999/xlink" viewBox="0 0 75.6 102.33"><defs><linearGradient id="Sfumatura_senza_nome_2" x1="-914.35" y1="587.16" x2="-913.78" y2="587.69" gradientTransform="matrix(60.54, 0, 0, -60.29, 55373.17, 35443.22)" gradientUnits="userSpaceOnUse"><stop offset="0" stop-color="#61a9fc"/><stop offset="1" stop-color="#315bce"/></linearGradient></defs><title>Risorsa 1</title><g id="Livello_2" data-name="Livello 2"><g id="Livello_1-2" data-name="Livello 1"><g id="Group_4597" data-name="Group 4597"><path id="Union_77" data-name="Union 77" d="M29.31,59.32,29,59.23l-.27-.09-.27-.08a31.41,31.41,0,0,1-10.18-5.68A31,31,0,0,1,14,48.88a21,21,0,0,1-1.5-2.25c2.41-.2,4.58-.42,6.83-.56q8.07-.55,16.13-1.07c1.41-.1,2.82-.3,4.24-.3,1.73,0,2.7,1.34,2,2.84-1.92,4.17-3.9,8.23-5.86,12.35-.07.14-.22.22-.3.4A23.4,23.4,0,0,1,29.31,59.32Zm25.83-7.7c-1.09-1.55-2.25-3.06-3.26-4.68a2,2,0,0,1,.32-2.75,1.91,1.91,0,0,1,1.26-.43c3.69-.32,7.39-.52,11.08-.75a3.55,3.55,0,0,1,.65.12,30.19,30.19,0,0,1-8.44,10.73ZM9.62,41.27A30.28,30.28,0,0,1,7.53,30.22a31.34,31.34,0,0,1,.61-6.11.3.3,0,0,0,0-.1c.1-.53.23-1.05.38-1.57.07-.27.15-.54.22-.8l.09-.29,0-.11a.32.32,0,0,0,0-.09c.25-.82.54-1.62.86-2.41a29.79,29.79,0,0,1,2.3-4.5c-.19.3-.37.61-.55.92.18-.31.36-.62.55-.92a31.44,31.44,0,0,1,5.66-6.62c.3-.24.6-.42,1.05-.75.48.63,1,1.21,1.39,1.83,1.91,2.71,3.75,5.47,5.73,8.12a3.1,3.1,0,0,1,.27,3.62c-1.08,2.13-2.09,4.29-3.09,6.47-.69,1.41-.38,2.52.75,3s2.17,0,2.86-1.42c.48-1,.87-2,1.39-2.94,1-1.79,2.56-1.94,3.75-.29q4.29,6,8.54,12.13l.28.38a2.09,2.09,0,0,1,.17,2.08,2,2,0,0,1-1.87,1c-4.35.29-8.69.62-13,1-3.85.28-7.7.58-11.56.83-1.29.12-2.6.12-4,.17A12.72,12.72,0,0,1,9.62,41.27ZM51,38.65A1.91,1.91,0,0,1,51,37L61,16a1.93,1.93,0,0,1,2.59-.92,2,2,0,0,1,.89.84,30.46,30.46,0,0,1,2.68,21.62,2,2,0,0,1-1.7,1.5c-4.07.26-8.15.54-12.22.74l-.49,0A1.58,1.58,0,0,1,51,38.65Zm-7.8-3.94c-3.38-5.05-7-10-10.5-14.94a3,3,0,0,1-.38-3.33Q36,8.64,39.76.86a6.58,6.58,0,0,1,.58-.78,31.44,31.44,0,0,1,9.95,2.58,30.38,30.38,0,0,1,9.5,6.75c-.9,1.91-1.73,3.75-2.6,5.58-3,6.44-6.19,12.82-9.17,19.3-.67,1.47-1.5,2.22-2.39,2.22s-1.62-.59-2.43-1.8ZM26.84,11.4c-1.63-2.23-3.19-4.5-4.88-7,.49-.31,1-.6,1.5-.88a29.92,29.92,0,0,1,6-2.46A34,34,0,0,1,35.64,0h.29c-1,2.2-1.9,4.1-2.73,5.83s-1.6,3.43-2.52,5.25a2.3,2.3,0,0,1-2,1.47A2.43,2.43,0,0,1,26.84,11.4Z" style="fill:url(#Sfumatura_senza_nome_2)"/><path id="Path_1326" data-name="Path 1326" d="M45.26,50.16c-1.54,3.16-3,6.35-4.56,9.52a6.66,6.66,0,0,0-.27,1,30,30,0,0,0,13.35-4.24c-1.61-2.31-3.07-4.45-4.59-6.56C47.76,47.91,46.28,48,45.26,50.16Z" style="fill:#f4f6f8"/></g><path id="Path_1072" data-name="Path 1072" d="M26.52,96.65l-1.46,5.62H23.4l-.9-3.7-.92,3.7H19.92L18.5,96.65H20l.81,4.09,1-4.09H23.3l1,4.09.82-4.09Zm5.78,4.62H30.2l-.33,1H28.44l2-5.62H32l2,5.62H32.64Zm-.35-1-.7-2-.69,2Zm5.72,1h1.79v1.06H36.3V96.65h1.37Zm5.41,0h1.79v1.06H41.72V96.65h1.37Zm5.42-3.46v1h1.8v1.06H48.51v1.23h2.07v1.1H47.14v-5.6h3.44v1.1Zm8.6-1.1v1.1H55.62v4.52H54.3V97.75H52.76v-1.1Z" style="fill:#407ce0"/><g id="Group_4157" data-name="Group 4157"><path id="Path_113" data-name="Path 113" d="M13,63.41a1.26,1.26,0,0,0-.88.35,1.13,1.13,0,0,0-.36.9v9.48H2.49V68.48a1.19,1.19,0,0,0-1.06-1.29H1.25a1.24,1.24,0,0,0-.89.35,1.21,1.21,0,0,0-.36.9v15a1.25,1.25,0,0,0,1.27,1.25h0a1.31,1.31,0,0,0,.86-.36,1.28,1.28,0,0,0,.35-.89V76.35h9.26v7.14A1.23,1.23,0,0,0,13,84.74h0a1.18,1.18,0,0,0,.89-.36,1.32,1.32,0,0,0,.34-.89V64.64a1.15,1.15,0,0,0-1.06-1.23Z" style="fill:#f4f6f8"/><path id="Path_114" data-name="Path 114" d="M28.77,71.76a1,1,0,0,0-1.38.31.56.56,0,0,0-.05.08,1.54,1.54,0,0,0-.08.19l-3.78,8.92-4.51-9a1.11,1.11,0,0,0-1.44-.6h-.05a1.19,1.19,0,0,0-.63.62,1,1,0,0,0,0,.87l5.53,10.43a.22.22,0,0,0,.05.08L20.77,87.5A1.1,1.1,0,0,0,21.28,89h.08a1.14,1.14,0,0,0,1.49-.62h0L29.3,73.2A1,1,0,0,0,29,71.82a1,1,0,0,0-.31-.14Z" style="fill:#f4f6f8"/><path id="Path_115" data-name="Path 115" d="M41,72.4a7,7,0,0,0-6.74,0,6.52,6.52,0,0,0-2.36,2.39,7,7,0,0,0-.89,3.4V88a1.25,1.25,0,0,0,1.28,1.22h0a1.23,1.23,0,0,0,.83-.35,1.17,1.17,0,0,0,.34-.87v-5.3A6,6,0,0,0,41.23,84a6.37,6.37,0,0,0,2.19-2.36,7.07,7.07,0,0,0,.8-3.4,6.65,6.65,0,0,0-.87-3.4A6.52,6.52,0,0,0,41,72.4Zm.32,8.08a4.19,4.19,0,0,1-5.69,1.7l-.18-.1a4.13,4.13,0,0,1-1.53-1.6,5.1,5.1,0,0,1,0-4.6,4.22,4.22,0,0,1,1.53-1.61,4.34,4.34,0,0,1,4.35,0,4.13,4.13,0,0,1,1.54,1.59,4.78,4.78,0,0,1,.56,2.31,4.68,4.68,0,0,1-.56,2.29Z" style="fill:#f4f6f8"/><path id="Path_116" data-name="Path 116" d="M56.76,72.21a6.06,6.06,0,0,0-2.95-.7A5.92,5.92,0,0,0,51,72.2a3.45,3.45,0,0,0-1.2.91V68.43a1.18,1.18,0,0,0-1.11-1.24h-.15a1.52,1.52,0,0,0-1,.34,1.29,1.29,0,0,0-.47.88v15.1a1.37,1.37,0,0,0,.47.88,1.29,1.29,0,0,0,.95.34,1.25,1.25,0,0,0,.94-.34,1.23,1.23,0,0,0,.38-.88V76.78a2.67,2.67,0,0,1,.48-1.57,3.37,3.37,0,0,1,1.28-1.09,4,4,0,0,1,1.82-.41,4.44,4.44,0,0,1,2,.42,3,3,0,0,1,1.3,1.28,4.4,4.4,0,0,1,.44,2.23v5.9a1.26,1.26,0,0,0,.41.87,1.19,1.19,0,0,0,.91.35,1.16,1.16,0,0,0,1.18-1.14v-6a6.91,6.91,0,0,0-.75-3.37A5.08,5.08,0,0,0,56.76,72.21Z" style="fill:#f4f6f8"/><path id="Path_117" data-name="Path 117" d="M74.73,74.79A6.63,6.63,0,0,0,62.4,78v.22a6.89,6.89,0,0,0,.8,3.39,6.21,6.21,0,0,0,2.19,2.36,5.92,5.92,0,0,0,7.77-1.33v.91a1.22,1.22,0,0,0,2.44,0h0V78.19a6.66,6.66,0,0,0-.88-3.4Zm-2,5.69a4.15,4.15,0,0,1-1.51,1.6,4.21,4.21,0,0,1-5.79-1.43l-.1-.17a5,5,0,0,1,0-4.6,4.21,4.21,0,0,1,5.89-1.61,4.21,4.21,0,0,1,1.49,1.59,4.89,4.89,0,0,1,.55,2.31,4.78,4.78,0,0,1-.55,2.29Z" style="fill:#f4f6f8"/></g></g></g></svg>