<svg xmlns="http://www.w3.org/2000/svg" viewBox="0 0 75.61 102.41"><title>logo-composite</title><g id="Livello_2" data-name="Livello 2"><g id="Livello_1-2" data-name="Livello 1"><g id="Layer_2" data-name="Layer 2"><path id="Path_6" data-name="Path 6" d="M9.2,21.14l.08-.3Z" style="fill:#e8ecd7"/><path id="Path_7" data-name="Path 7" d="M9.34,20.65a29,29,0,0,1,3.08-6.75A27.84,27.84,0,0,0,9.34,20.65Z" style="fill:#e8ecd7"/><path id="Path_9" data-name="Path 9" d="M9.28,20.84a.49.49,0,0,1,.06-.17Z" style="fill:#e8ecd7"/><path id="Path_10" data-name="Path 10" d="M9.2,21.14a22.37,22.37,0,0,0-.61,2.41c.11-.47.21-.95.34-1.41S9.1,21.47,9.2,21.14Z" style="fill:#e8ecd7"/><path id="Path_11" data-name="Path 11" d="M14.63,41.46c3.76-.24,7.51-.54,11.25-.82,4.23-.31,8.46-.63,12.69-.91a1.91,1.91,0,0,0,1.81-1,2,2,0,0,0-.16-2L40,36.37q-4.12-5.91-8.31-11.8C30.49,23,29,23.11,28,24.85c-.5.93-.88,1.92-1.35,2.87C26,29.07,25,29.56,23.86,29.1s-1.4-1.54-.73-2.92c1-2.11,1.95-4.22,3-6.29a3,3,0,0,0-.26-3.52c-1.92-2.59-3.71-5.27-5.58-7.9-.4-.61-.88-1.18-1.35-1.78-.44.31-.73.5-1,.73a30,30,0,0,0-5.5,6.44,29.22,29.22,0,0,0-3.09,6.72.61.61,0,0,1-.05.18l-.08.3q-.15.48-.27,1c-.13.47-.23.94-.34,1.41A30.47,30.47,0,0,0,8,29.41a29.11,29.11,0,0,0,2,10.75,11.37,11.37,0,0,0,.68,1.46C12.1,41.57,13.38,41.57,14.63,41.46Z" style="fill:#407ce0"/><path id="Path_12" data-name="Path 12" d="M39.51.83Q35.86,8.42,32.28,16a2.92,2.92,0,0,0,.37,3.24c3.44,4.82,6.92,9.62,10.21,14.54,1.67,2.49,3.46,2.3,4.69-.41,2.9-6.3,6-12.52,8.93-18.78C57.33,12.81,58.14,11,59,9.15a29.59,29.59,0,0,0-9.25-6.56A31,31,0,0,0,40.08.07,6,6,0,0,0,39.51.83Z" style="fill:#293e83"/><path id="Path_13" data-name="Path 13" d="M35.53,58.43c1.91-4,3.83-8,5.7-12,.68-1.46-.27-2.76-1.95-2.75-1.37,0-2.75.19-4.12.28q-7.84.51-15.7,1c-2.19.14-4.3.35-6.65.55a21.37,21.37,0,0,0,1.46,2.19,29.29,29.29,0,0,0,4.18,4.37,30.58,30.58,0,0,0,9.9,5.53l.26.08.27.09.3.09a22.19,22.19,0,0,0,6,.93C35.31,58.65,35.46,58.57,35.53,58.43Z" style="fill:#293e83"/><path id="Path_14" data-name="Path 14" d="M52.64,38.8c4-.2,7.93-.47,11.89-.73h0a1.89,1.89,0,0,0,1.66-1.46,29.58,29.58,0,0,0-2.6-21A1.91,1.91,0,0,0,61,14.8a2,2,0,0,0-.81.85L50.46,36.1a1.9,1.9,0,0,0,0,1.58C50.93,38.72,51.31,38.87,52.64,38.8Z" style="fill:#407ce0"/><path id="Path_15" data-name="Path 15" d="M26.84,11.09c1.18,1.62,2.83,1.46,3.73-.31S32.22,7.36,33,5.67,34.68,2.14,35.68,0H35.4a32.43,32.43,0,0,0-6,1.07,28.71,28.71,0,0,0-5.83,2.39c-.5.27-1,.55-1.46.85C23.73,6.71,25.25,8.92,26.84,11.09Z" style="fill:#1b2b5e"/><path id="Path_16" data-name="Path 16" d="M44.57,48.59c-1.5,3.08-3,6.18-4.43,9.27a5.06,5.06,0,0,0-.27.94,29.24,29.24,0,0,0,13-4.13c-1.57-2.25-3-4.33-4.47-6.38C47,46.4,45.57,46.51,44.57,48.59Z" style="fill:#f4f6f8"/><path id="Path_17" data-name="Path 17" d="M63.63,42c-3.6.23-7.19.43-10.78.73a1.91,1.91,0,0,0-1.54,3.1c1,1.57,2.11,3,3.17,4.55L56,52.57a29.37,29.37,0,0,0,8.21-10.45A3.24,3.24,0,0,0,63.63,42Z" style="fill:#293e83"/></g><path id="Path_1072" data-name="Path 1072" d="M26.22,96.79l-1.46,5.62H23.1l-.9-3.7-.92,3.7H19.62L18.2,96.79h1.46l.81,4.09,1-4.09H23l1,4.09.82-4.09ZM32,101.41h-2.1l-.33,1H28.14l2-5.62h1.58l2,5.62H32.34Zm-.35-1-.7-2-.69,2Zm5.72,1h1.79v1.06H36V96.79h1.37Zm5.41,0h1.79v1.06H41.42V96.79h1.37Zm5.42-3.46V99H50v1.06H48.21v1.23h2.07v1.1H46.84V96.79h3.44v1.1Zm8.6-1.1v1.1H55.32v4.52H54V97.89H52.46v-1.1Z" style="fill:#407ce0"/><g id="Group_4157" data-name="Group 4157"><path id="Path_113" data-name="Path 113" d="M13,63.55a1.24,1.24,0,0,0-.88.35,1.13,1.13,0,0,0-.36.9v9.48H2.49V68.62A1.18,1.18,0,0,0,1.4,67.33H1.25a1.24,1.24,0,0,0-.89.35,1.2,1.2,0,0,0-.36.9v15a1.26,1.26,0,0,0,1.28,1.25,1.31,1.31,0,0,0,.86-.36,1.28,1.28,0,0,0,.35-.89V76.49h9.26v7.14A1.23,1.23,0,0,0,13,84.88h0a1.18,1.18,0,0,0,.89-.36,1.32,1.32,0,0,0,.34-.89V64.78A1.15,1.15,0,0,0,13,63.55Z" style="fill:#f4f6f8"/><path id="Path_114" data-name="Path 114" d="M28.77,71.9a1,1,0,0,0-1.43.39,1.08,1.08,0,0,0-.08.19L23.48,81.4l-4.51-9a1.11,1.11,0,0,0-1.44-.6l-.05,0a1.16,1.16,0,0,0-.63.62,1,1,0,0,0,0,.87l5.53,10.43a.22.22,0,0,0,.05.08l-1.66,3.84a1.09,1.09,0,0,0,.52,1.46l.07,0a1.14,1.14,0,0,0,1.49-.62l6.45-15.14a1,1,0,0,0-.59-1.52Z" style="fill:#f4f6f8"/><path id="Path_115" data-name="Path 115" d="M41,72.54a7,7,0,0,0-6.74,0,6.44,6.44,0,0,0-2.36,2.39,7,7,0,0,0-.89,3.4v9.76a1.25,1.25,0,0,0,1.28,1.22,1.23,1.23,0,0,0,.83-.35,1.18,1.18,0,0,0,.34-.87v-5.3a6,6,0,0,0,7.77,1.31,6.37,6.37,0,0,0,2.19-2.36,7.07,7.07,0,0,0,.8-3.4,6.65,6.65,0,0,0-.87-3.4A6.52,6.52,0,0,0,41,72.54Zm.32,8.08a4.2,4.2,0,0,1-5.87,1.6,4.13,4.13,0,0,1-1.53-1.6,5.08,5.08,0,0,1,0-4.6,4.15,4.15,0,0,1,1.53-1.61,4.34,4.34,0,0,1,4.35,0A4.2,4.2,0,0,1,41.34,76a4.73,4.73,0,0,1,.56,2.31,4.68,4.68,0,0,1-.56,2.29Z" style="fill:#f4f6f8"/><path id="Path_116" data-name="Path 116" d="M56.76,72.35a6.06,6.06,0,0,0-2.95-.7,5.81,5.81,0,0,0-2.83.69,3.45,3.45,0,0,0-1.2.91V68.57a1.18,1.18,0,0,0-1.11-1.24h-.15a1.54,1.54,0,0,0-1,.34,1.29,1.29,0,0,0-.47.88v15.1a1.37,1.37,0,0,0,.47.88,1.33,1.33,0,0,0,.95.34,1.25,1.25,0,0,0,.94-.34,1.23,1.23,0,0,0,.38-.88V76.92a2.67,2.67,0,0,1,.48-1.57,3.3,3.3,0,0,1,1.28-1.09,4,4,0,0,1,1.82-.41,4.39,4.39,0,0,1,2,.42,3,3,0,0,1,1.3,1.28,4.4,4.4,0,0,1,.44,2.23v5.9a1.26,1.26,0,0,0,.41.87,1.23,1.23,0,0,0,.91.35,1.16,1.16,0,0,0,1.18-1.22v-5.9a6.91,6.91,0,0,0-.75-3.37A5.08,5.08,0,0,0,56.76,72.35Z" style="fill:#f4f6f8"/><path id="Path_117" data-name="Path 117" d="M74.73,74.93A6.45,6.45,0,0,0,69,71.67a6.52,6.52,0,0,0-6.6,6.66,6.89,6.89,0,0,0,.8,3.39,6.21,6.21,0,0,0,2.19,2.36,6.06,6.06,0,0,0,6.28,0,6.29,6.29,0,0,0,1.49-1.33v.91a1.22,1.22,0,1,0,2.44,0V78.33a6.66,6.66,0,0,0-.88-3.4Zm-2,5.69a4.22,4.22,0,0,1-1.51,1.6,4.22,4.22,0,0,1-5.89-1.6,5,5,0,0,1,0-4.6,4.3,4.3,0,0,1,1.53-1.61,4.35,4.35,0,0,1,4.36,0A4.17,4.17,0,0,1,72.71,76a4.86,4.86,0,0,1,.55,2.31,4.78,4.78,0,0,1-.55,2.29Z" style="fill:#f4f6f8"/></g></g></g></svg>