<svg xmlns="http://www.w3.org/2000/svg" xmlns:xlink="http://www.w3.org/1999/xlink" viewBox="0 0 60.54 60.65"><defs><linearGradient id="Sfumatura_senza_nome_2" x1="-921.88" y1="587.16" x2="-921.31" y2="587.69" gradientTransform="matrix(60.54, 0, 0, -60.29, 55821.59, 35443.22)" gradientUnits="userSpaceOnUse"><stop offset="0" stop-color="#61a9fc"/><stop offset="1" stop-color="#315bce"/></linearGradient></defs><title>Risorsa 1</title><g id="Livello_2" data-name="Livello 2"><g id="Livello_1-2" data-name="Livello 1"><path id="Union_77" data-name="Union 77" d="M21.78,59.32l-.31-.09-.28-.09-.26-.08a31.41,31.41,0,0,1-10.18-5.68,30.43,30.43,0,0,1-4.29-4.5A21,21,0,0,1,5,46.63c2.41-.2,4.58-.42,6.83-.56q8.07-.55,16.13-1.07c1.41-.1,2.82-.3,4.23-.3,1.74,0,2.7,1.34,2,2.84-1.91,4.17-3.89,8.23-5.86,12.35-.07.14-.21.22-.29.4A23.4,23.4,0,0,1,21.78,59.32Zm25.83-7.7c-1.09-1.55-2.25-3.06-3.26-4.68a2,2,0,0,1,1.58-3.18c3.69-.32,7.39-.52,11.08-.75a3.71,3.71,0,0,1,.65.12,30.19,30.19,0,0,1-8.44,10.73ZM2.09,41.27A30.08,30.08,0,0,1,0,30.22a30.59,30.59,0,0,1,.61-6.11.3.3,0,0,0,0-.1c.1-.53.23-1.05.38-1.57.07-.27.14-.54.22-.8l.09-.29,0-.11a.15.15,0,0,0,0-.09c.26-.82.55-1.62.87-2.41a29.79,29.79,0,0,1,2.3-4.5c-.19.3-.37.61-.55.92.18-.31.36-.62.55-.92A31.15,31.15,0,0,1,10.2,7.62c.3-.24.6-.42,1.05-.75.48.63,1,1.21,1.39,1.83,1.91,2.71,3.75,5.47,5.72,8.12a3.09,3.09,0,0,1,.28,3.62c-1.08,2.13-2.09,4.29-3.09,6.47-.69,1.41-.38,2.52.75,3s2.17,0,2.85-1.42c.49-1,.88-2,1.4-2.94,1-1.79,2.56-1.94,3.74-.29q4.31,6,8.55,12.13l.28.38a2.09,2.09,0,0,1,.17,2.08,2,2,0,0,1-1.87,1c-4.35.29-8.69.62-13,1-3.85.28-7.7.58-11.56.83-1.29.12-2.6.12-4,.17A12.72,12.72,0,0,1,2.09,41.27Zm41.39-2.62a1.91,1.91,0,0,1,0-1.62l10-21a2,2,0,0,1,2.6-.92,1.89,1.89,0,0,1,.88.84,30.36,30.36,0,0,1,2.68,21.62,2,2,0,0,1-1.7,1.5c-4.06.26-8.14.54-12.22.74l-.49,0A1.56,1.56,0,0,1,43.48,38.65Zm-7.8-3.94c-3.39-5.05-7-10-10.5-14.94a3,3,0,0,1-.38-3.33Q28.49,8.64,32.23.86a6.58,6.58,0,0,1,.58-.78,31.44,31.44,0,0,1,9.95,2.58,30.49,30.49,0,0,1,9.5,6.75c-.9,1.91-1.73,3.75-2.6,5.58-3,6.44-6.19,12.82-9.17,19.3-.67,1.47-1.5,2.22-2.39,2.22s-1.62-.59-2.43-1.8ZM19.31,11.4c-1.63-2.23-3.19-4.5-4.89-7,.49-.31,1-.6,1.5-.88a30.4,30.4,0,0,1,6-2.46A34.31,34.31,0,0,1,28.11,0h.29c-1,2.2-1.9,4.1-2.73,5.83s-1.6,3.43-2.52,5.25a2.3,2.3,0,0,1-2,1.47A2.41,2.41,0,0,1,19.31,11.4Z" style="fill:url(#Sfumatura_senza_nome_2)"/><path id="Path_1326" data-name="Path 1326" d="M37.73,50.16c-1.54,3.16-3,6.35-4.56,9.52a5.6,5.6,0,0,0-.27,1,30,30,0,0,0,13.35-4.24c-1.61-2.31-3.07-4.45-4.59-6.56C40.23,47.91,38.75,48,37.73,50.16Z" style="fill:#f4f6f8"/></g></g></svg>