<svg xmlns="http://www.w3.org/2000/svg" xmlns:xlink="http://www.w3.org/1999/xlink" viewBox="0 0 75.6 102.33"><defs><linearGradient id="Sfumatura_senza_nome_3" x1="-914.35" y1="587.19" x2="-913.78" y2="587.71" gradientTransform="matrix(60.54, 0, 0, -60.65, 55370.84, 35657.8)" gradientUnits="userSpaceOnUse"><stop offset="0" stop-color="#61a9fc"/><stop offset="1" stop-color="#315bce"/></linearGradient></defs><title>Risorsa 1</title><g id="Livello_2" data-name="Livello 2"><g id="Livello_1-2" data-name="Livello 1"><g id="Livello_1-2-2" data-name="Livello 1-2"><path id="Path_1072" data-name="Path 1072" d="M26.52,96.65l-1.46,5.62H23.4l-.9-3.7-.92,3.7H19.92L18.5,96.65H20l.81,4.09,1-4.09H23.3l1,4.09.82-4.09Zm5.78,4.62H30.2l-.33,1H28.44l2-5.62H32l2,5.62H32.64Zm-.35-1-.7-2-.69,2Zm5.72,1h1.79v1.06H36.3V96.65h1.37Zm5.41,0h1.79v1.06H41.72V96.65h1.37Zm5.42-3.46v1h1.8v1.06H48.51v1.23h2.07v1.1H47.14V96.6h3.44v1.1Zm8.6-1.1v1.1H55.62v4.52H54.3V97.75H52.76v-1.1Z" style="fill:#407ce0"/><g id="Group_4157" data-name="Group 4157"><path id="Path_113" data-name="Path 113" d="M13,63.41a1.26,1.26,0,0,0-.88.35,1.13,1.13,0,0,0-.36.9v9.48H2.49V68.48a1.19,1.19,0,0,0-1.06-1.29H1.25a1.24,1.24,0,0,0-.89.35,1.21,1.21,0,0,0-.36.9v15a1.25,1.25,0,0,0,1.25,1.25h0a1.31,1.31,0,0,0,.86-.36,1.28,1.28,0,0,0,.35-.89V76.35h9.26v7.14A1.23,1.23,0,0,0,13,84.74H13a1.19,1.19,0,0,0,.89-.36,1.32,1.32,0,0,0,.34-.89V64.64a1.15,1.15,0,0,0-1.06-1.23Z" style="fill:#1a2636"/><path id="Path_114" data-name="Path 114" d="M28.77,71.76a1,1,0,0,0-1.38.31h0a.35.35,0,0,0-.05.08,1.08,1.08,0,0,0-.08.19l-3.78,8.92-4.51-9a1.11,1.11,0,0,0-1.44-.6h-.05a1.19,1.19,0,0,0-.63.62,1,1,0,0,0,0,.87l5.53,10.43a.22.22,0,0,0,.05.08L20.77,87.5A1.1,1.1,0,0,0,21.24,89l0,0h.08a1.14,1.14,0,0,0,1.49-.62h0L29.3,73.2a1,1,0,0,0-.3-1.38,1.09,1.09,0,0,0-.31-.14Z" style="fill:#1a2636"/><path id="Path_115" data-name="Path 115" d="M41,72.4a7,7,0,0,0-6.74,0,6.59,6.59,0,0,0-2.36,2.39,7,7,0,0,0-.89,3.4V88a1.25,1.25,0,0,0,1.28,1.22h0a1.23,1.23,0,0,0,.83-.35,1.18,1.18,0,0,0,.34-.87V82.7A6,6,0,0,0,41.23,84a6.44,6.44,0,0,0,2.19-2.36,7.07,7.07,0,0,0,.8-3.4,6.63,6.63,0,0,0-.87-3.4A6.4,6.4,0,0,0,41,72.4Zm.32,8.08a4.19,4.19,0,0,1-5.67,1.71h0l-.18-.1a4.13,4.13,0,0,1-1.53-1.6,5.1,5.1,0,0,1,0-4.6,4.21,4.21,0,0,1,5.88-1.61,4.13,4.13,0,0,1,1.54,1.59,4.78,4.78,0,0,1,.56,2.31,4.68,4.68,0,0,1-.56,2.29Z" style="fill:#1a2636"/><path id="Path_116" data-name="Path 116" d="M56.76,72.21a6.06,6.06,0,0,0-2.95-.7A5.87,5.87,0,0,0,51,72.2a3.45,3.45,0,0,0-1.2.91V68.43a1.18,1.18,0,0,0-1.11-1.24h-.15a1.52,1.52,0,0,0-1,.34,1.29,1.29,0,0,0-.47.88v15.1a1.37,1.37,0,0,0,.47.88,1.29,1.29,0,0,0,1,.34,1.25,1.25,0,0,0,.94-.34,1.23,1.23,0,0,0,.38-.88V76.78a2.67,2.67,0,0,1,.48-1.57,3.37,3.37,0,0,1,1.28-1.09,4,4,0,0,1,1.82-.41,4.44,4.44,0,0,1,2,.42,3,3,0,0,1,1.3,1.28,4.4,4.4,0,0,1,.44,2.23v5.9a1.26,1.26,0,0,0,.41.87,1.19,1.19,0,0,0,.91.35,1.16,1.16,0,0,0,1.18-1.14h0v-6a6.91,6.91,0,0,0-.75-3.37A5.14,5.14,0,0,0,56.76,72.21Z" style="fill:#1a2636"/><path id="Path_117" data-name="Path 117" d="M74.73,74.79A6.63,6.63,0,0,0,62.4,78v.22a6.89,6.89,0,0,0,.8,3.39A6.21,6.21,0,0,0,65.39,84a5.92,5.92,0,0,0,7.77-1.33v.91a1.22,1.22,0,1,0,2.44,0h0V78.19a6.64,6.64,0,0,0-.88-3.4Zm-2,5.69a4.15,4.15,0,0,1-1.51,1.6,4.2,4.2,0,0,1-5.78-1.42h0l-.1-.17a5,5,0,0,1,0-4.6A4.21,4.21,0,0,1,71,74.16l.19.11a4.21,4.21,0,0,1,1.49,1.59,4.89,4.89,0,0,1,.55,2.31,4.81,4.81,0,0,1-.55,2.29Z" style="fill:#1a2636"/></g></g><path id="Union_78" data-name="Union 78" d="M40.78,59.68c1.51-3.18,3-6.36,4.56-9.52,1-2.14,2.5-2.25,3.93-.31,1.52,2.1,3,4.25,4.59,6.56A30,30,0,0,1,40.5,60.65,7.73,7.73,0,0,1,40.78,59.68Zm-11.39-.36-.31-.09-.28-.09-.26-.08a31.41,31.41,0,0,1-10.18-5.68,30.43,30.43,0,0,1-4.29-4.5,21,21,0,0,1-1.5-2.25c2.4-.2,4.57-.42,6.82-.57q8.09-.56,16.13-1.06c1.41-.1,2.83-.29,4.24-.29,1.73,0,2.7,1.33,2,2.83-1.92,4.17-3.9,8.23-5.87,12.34-.06.14-.21.23-.29.4A23,23,0,0,1,29.39,59.32Zm25.83-7.7C54.12,50.07,53,48.55,52,46.94a2,2,0,0,1-.22-2.1,2,2,0,0,1,1.8-1.09c3.69-.31,7.38-.52,11.08-.75a4.84,4.84,0,0,1,.64.13,30.36,30.36,0,0,1-8.44,10.73ZM9.7,41.27A30.08,30.08,0,0,1,7.61,30.22a30.59,30.59,0,0,1,.61-6.11c.11-.49.22-1,.35-1.45s.17-.69.27-1l.09-.31A1.21,1.21,0,0,0,9,21.15a29.85,29.85,0,0,1,3.18-6.91,30.82,30.82,0,0,1,5.65-6.62c.3-.24.6-.42,1.05-.75.48.63,1,1.21,1.38,1.83C22.16,11.41,24,14.17,26,16.83a3.08,3.08,0,0,1,.27,3.61c-1.08,2.13-2.09,4.29-3.09,6.47-.69,1.41-.38,2.52.75,3s2.17,0,2.85-1.43c.49-1,.88-2,1.4-2.94,1-1.79,2.56-1.94,3.74-.29q4.31,6,8.55,12.13l.27.38a2.07,2.07,0,0,1,.17,2.08,2,2,0,0,1-1.87,1c-4.34.28-8.69.61-13,.93-3.85.29-7.7.6-11.57.84-1.29.12-2.59.12-4,.17A12.64,12.64,0,0,1,9.7,41.27Zm41.38-2.62a2,2,0,0,1,0-1.62l10-21a1.92,1.92,0,0,1,1.71-1.11,2,2,0,0,1,1.77,1,30.4,30.4,0,0,1,2.67,21.62,1.94,1.94,0,0,1-1.7,1.5c-4.07.27-8.14.54-12.22.75h-.48A1.58,1.58,0,0,1,51.08,38.65Zm-7.8-3.94c-3.38-5.05-7-10-10.49-14.94a3,3,0,0,1-.38-3.33Q36.1,8.65,39.84.86a5.64,5.64,0,0,1,.58-.78,31.44,31.44,0,0,1,9.95,2.58,30.49,30.49,0,0,1,9.5,6.75c-.89,1.91-1.73,3.75-2.6,5.58-3.05,6.44-6.19,12.83-9.17,19.3-.67,1.47-1.5,2.22-2.39,2.22s-1.62-.59-2.43-1.8ZM26.92,11.4c-1.63-2.23-3.19-4.5-4.89-7,.5-.31,1-.6,1.5-.88a30.4,30.4,0,0,1,6-2.46A34.26,34.26,0,0,1,35.73,0H36c-1,2.2-1.9,4.1-2.73,5.83s-1.6,3.43-2.53,5.25a2.29,2.29,0,0,1-2,1.47,2.4,2.4,0,0,1-1.89-1.15Z" style="fill:url(#Sfumatura_senza_nome_3)"/></g></g></svg>