<svg xmlns="http://www.w3.org/2000/svg" viewBox="0 0 59.06 58.81"><title>logo-icon</title><g id="Livello_2" data-name="Livello 2"><g id="Livello_1-2" data-name="Livello 1"><g id="Layer_2" data-name="Layer 2"><path id="Path_6" data-name="Path 6" d="M1.2,21.14l.08-.3Z" style="fill:#e8ecd7"/><path id="Path_7" data-name="Path 7" d="M1.34,20.65A29,29,0,0,1,4.42,13.9,27.84,27.84,0,0,0,1.34,20.65Z" style="fill:#e8ecd7"/><path id="Path_9" data-name="Path 9" d="M1.28,20.84a.49.49,0,0,1,.06-.17Z" style="fill:#e8ecd7"/><path id="Path_10" data-name="Path 10" d="M1.2,21.14a22.37,22.37,0,0,0-.61,2.41c.11-.47.21-.95.34-1.41S1.1,21.47,1.2,21.14Z" style="fill:#e8ecd7"/><path id="Path_11" data-name="Path 11" d="M6.63,41.46c3.76-.24,7.51-.54,11.25-.82,4.23-.31,8.46-.63,12.69-.91a1.91,1.91,0,0,0,1.81-1,2,2,0,0,0-.16-2L32,36.37q-4.12-5.91-8.31-11.8C22.49,23,21,23.11,20,24.85c-.5.93-.88,1.92-1.35,2.87C18,29.07,17,29.56,15.86,29.1s-1.4-1.54-.73-2.92c1-2.11,1.95-4.22,3-6.29a3,3,0,0,0-.26-3.52c-1.92-2.59-3.71-5.27-5.58-7.9-.4-.61-.88-1.18-1.35-1.78-.44.31-.73.5-1,.73a30,30,0,0,0-5.5,6.44,29.22,29.22,0,0,0-3.09,6.72.61.61,0,0,1-.05.18l-.08.3q-.15.48-.27,1C.8,22.52.7,23,.59,23.46A30.47,30.47,0,0,0,0,29.41,29.11,29.11,0,0,0,2,40.16a11.37,11.37,0,0,0,.68,1.46C4.1,41.57,5.38,41.57,6.63,41.46Z" style="fill:#407ce0"/><path id="Path_12" data-name="Path 12" d="M31.51.83Q27.86,8.42,24.28,16a2.92,2.92,0,0,0,.37,3.24c3.44,4.82,6.92,9.62,10.21,14.54,1.67,2.49,3.46,2.3,4.69-.41,2.9-6.3,6-12.52,8.93-18.78C49.33,12.81,50.14,11,51,9.15a29.59,29.59,0,0,0-9.25-6.56A31,31,0,0,0,32.08.07,6,6,0,0,0,31.51.83Z" style="fill:#293e83"/><path id="Path_13" data-name="Path 13" d="M27.53,58.43c1.91-4,3.83-8,5.7-12,.68-1.46-.27-2.76-1.95-2.75-1.37,0-2.75.19-4.12.28q-7.85.51-15.7,1c-2.19.14-4.3.35-6.65.55a21.37,21.37,0,0,0,1.46,2.19,29.29,29.29,0,0,0,4.18,4.37,30.58,30.58,0,0,0,9.9,5.53l.26.08.27.09.3.09a22.19,22.19,0,0,0,6.05.93C27.31,58.65,27.46,58.57,27.53,58.43Z" style="fill:#293e83"/><path id="Path_14" data-name="Path 14" d="M44.64,38.8c4-.2,7.93-.47,11.89-.73h0a1.89,1.89,0,0,0,1.66-1.46,29.58,29.58,0,0,0-2.6-21A1.91,1.91,0,0,0,53,14.8a2,2,0,0,0-.81.85L42.46,36.1a1.9,1.9,0,0,0,0,1.58C42.93,38.72,43.31,38.87,44.64,38.8Z" style="fill:#407ce0"/><path id="Path_15" data-name="Path 15" d="M18.84,11.09c1.18,1.62,2.83,1.46,3.73-.31S24.22,7.36,25,5.67,26.68,2.14,27.68,0H27.4a32.43,32.43,0,0,0-6,1.07,28.71,28.71,0,0,0-5.83,2.39c-.5.27-1,.55-1.46.85C15.73,6.71,17.25,8.92,18.84,11.09Z" style="fill:#1b2b5e"/><path id="Path_16" data-name="Path 16" d="M36.57,48.59c-1.5,3.08-3,6.18-4.43,9.27a5.06,5.06,0,0,0-.27.94,29.24,29.24,0,0,0,13-4.13c-1.57-2.25-3-4.33-4.47-6.38C39,46.4,37.57,46.51,36.57,48.59Z" style="fill:#f4f6f8"/><path id="Path_17" data-name="Path 17" d="M55.63,42c-3.6.23-7.19.43-10.78.73a1.91,1.91,0,0,0-1.54,3.1c1,1.57,2.11,3,3.17,4.55L48,52.57a29.37,29.37,0,0,0,8.21-10.45A3.24,3.24,0,0,0,55.63,42Z" style="fill:#293e83"/></g></g></g></svg>